<svg width="518" height="415" viewBox="0 0 518 415" fill="none" xmlns="http://www.w3.org/2000/svg">
<path d="M511.756 61.9447C495.245 33.4766 451.669 27.0664 385.495 43.2537C354.859 19.565 318.194 4.94319 279.664 1.04936C241.134 -2.84446 202.284 4.14578 167.528 21.226C132.772 38.3062 103.502 64.7917 83.045 97.6737C62.5877 130.556 51.7625 168.516 51.799 207.242C51.8017 216.125 52.364 224.999 53.4825 233.811C-6.28113 295.733 -5.4178 332.424 6.25865 352.54C17.266 371.619 40.2305 379.907 70.4468 379.907C91.426 379.473 112.282 376.575 132.585 371.274C163.224 394.939 199.885 409.54 238.405 413.419C276.926 417.297 315.762 410.298 350.504 393.216C385.247 376.133 414.504 349.652 434.954 316.779C455.403 283.906 466.227 245.957 466.195 207.242C466.199 198.403 465.644 189.572 464.533 180.803C491.511 152.745 509.469 126.09 515.577 103.276C519.785 87.4775 518.512 73.578 511.756 61.9447ZM258.997 34.5773C298.104 34.6175 336.043 47.9142 366.619 72.2966C397.195 96.6789 418.602 130.707 427.345 168.824C390.524 203.487 340.689 239.034 293.379 266.229C233.917 300.352 182.334 321.633 141.196 333.287C115.859 309.656 98.2236 278.945 90.5852 245.151C82.9468 211.357 85.6595 176.046 98.3701 143.815C111.081 111.584 133.201 83.9269 161.85 64.4434C190.499 44.9599 224.35 34.5529 258.997 34.5773ZM36.1297 335.208C32.9785 329.791 34.7268 319.582 40.9211 307.15C47.0466 295.502 54.4991 284.602 63.1301 274.668C71.6857 299.456 84.8689 322.395 101.98 342.266C64.7489 348.525 41.5254 344.532 36.1297 335.208ZM258.997 379.907C229.884 379.936 201.243 372.553 175.772 358.453C222.523 341.919 267.633 321.066 310.516 296.164C357.092 269.423 398.316 240.437 431.532 211.818C430.302 256.779 411.591 299.489 379.375 330.875C347.158 362.261 303.974 379.851 258.997 379.907ZM482.209 94.3409C478.54 107.96 468.849 123.543 454.95 139.946C446.416 115.128 433.231 92.1641 416.1 72.283C446.77 67.211 475.173 67.5994 481.929 79.2759C483.871 82.6645 483.979 87.7365 482.209 94.3409Z" fill="#A5B4FC" fill-opacity="0.16"/>
</svg>
